<?xml version="1.0" encoding="utf-8"?>
<!-- Generator: Adobe Illustrator 18.1.1, SVG Export Plug-In . SVG Version: 6.00 Build 0)  -->
<svg version="1.1" id="Layer_1" xmlns="http://www.w3.org/2000/svg" xmlns:xlink="http://www.w3.org/1999/xlink" x="0px" y="0px"
	 viewBox="0 0 239 60" style="enable-background:new 0 0 239 60;" xml:space="preserve">
<g>
	<path d="M33.7,41.2c0,0.4,0,0.8,0,1.1c0,0.3,0,0.6,0.1,1l2,0.3v0.6c-0.5,0.2-1,0.5-1.6,0.7c-0.6,0.2-1.1,0.3-1.7,0.4h-0.7
		c-0.2-0.4-0.3-0.9-0.3-1.5c0-0.5-0.1-1.1-0.1-1.7h-0.1c-0.1,0.4-0.2,0.8-0.4,1.2c-0.2,0.4-0.5,0.7-0.9,1.1
		c-0.4,0.3-0.8,0.6-1.3,0.7c-0.5,0.2-1,0.3-1.6,0.3c-1.2,0-2.1-0.4-2.9-1.1c-0.7-0.7-1.1-1.6-1.1-2.8c0-0.9,0.2-1.6,0.5-2.2
		c0.4-0.6,0.9-1,1.6-1.3c0.7-0.3,1.5-0.6,2.6-0.7c1-0.1,2.2-0.3,3.5-0.3c0.1-0.8,0.1-1.6,0.1-2.2c0-0.7-0.1-1.2-0.3-1.7
		c-0.2-0.5-0.5-0.8-0.8-1.1c-0.4-0.3-0.8-0.4-1.4-0.4c-0.3,0-0.6,0-0.9,0c-0.3,0-0.7,0.1-1,0.2l-1.4,3.5h-0.7
		c-0.2-0.6-0.4-1.2-0.5-1.8c-0.1-0.6-0.2-1.2-0.3-1.8c0.7-0.4,1.5-0.8,2.4-1c0.9-0.2,1.9-0.4,3-0.4c1,0,1.8,0.1,2.3,0.4
		c0.6,0.3,1,0.6,1.3,1.1c0.3,0.4,0.5,0.9,0.6,1.5c0.1,0.5,0.1,1.1,0.1,1.6c0,1.2,0,2.3-0.1,3.3C33.7,39.1,33.7,40.2,33.7,41.2z
		 M28.2,43.5c0.5,0,0.9-0.1,1.3-0.3c0.4-0.2,0.7-0.4,0.9-0.7c0.2-0.3,0.5-0.5,0.6-0.8c0.2-0.3,0.3-0.5,0.3-0.7v-3
		c-1.1,0-2,0.1-2.7,0.2c-0.7,0.1-1.3,0.3-1.7,0.5c-0.4,0.2-0.7,0.6-0.8,0.9c-0.2,0.4-0.2,0.8-0.2,1.3c0,0.8,0.2,1.5,0.6,1.9
		C26.8,43.3,27.4,43.5,28.2,43.5z"/>
	<path d="M58.4,44.9h-6.2v-0.7c0.5-0.3,1.1-0.5,1.7-0.7v-6.8c0-1.5-0.2-2.6-0.6-3.5C52.8,32.4,52,32,50.9,32c-0.5,0-0.9,0.1-1.3,0.3
		c-0.4,0.2-0.8,0.4-1.1,0.7c-0.3,0.3-0.6,0.6-0.8,1c-0.2,0.4-0.4,0.8-0.5,1.2v8.4c0.6,0.1,1.2,0.3,1.7,0.7v0.7h-6.2v-0.7
		c0.5-0.2,1.1-0.5,1.9-0.7V32.2L42.6,32v-0.7c0.5-0.2,1.1-0.4,1.7-0.6c0.7-0.2,1.3-0.3,2-0.5h0.7v3.2h0c0.4-0.9,1-1.6,1.7-2.3
		c0.8-0.6,1.7-1,2.8-1c0.8,0,1.5,0.1,2.1,0.3c0.6,0.2,1.1,0.5,1.5,1c0.4,0.5,0.7,1.1,0.9,1.9c0.2,0.8,0.3,1.8,0.3,3v7.3
		c0.8,0.1,1.4,0.4,1.9,0.7V44.9z"/>
	<path d="M80.8,44.9h-6.2v-0.7c0.5-0.3,1.1-0.5,1.7-0.7v-6.8c0-1.5-0.2-2.6-0.6-3.5c-0.4-0.8-1.2-1.3-2.3-1.3
		c-0.5,0-0.9,0.1-1.3,0.3c-0.4,0.2-0.8,0.4-1.1,0.7c-0.3,0.3-0.6,0.6-0.8,1c-0.2,0.4-0.4,0.8-0.5,1.2v8.4c0.6,0.1,1.2,0.3,1.7,0.7
		v0.7H65v-0.7c0.5-0.2,1.1-0.5,1.9-0.7V32.2L65,32v-0.7c0.5-0.2,1.1-0.4,1.7-0.6c0.7-0.2,1.3-0.3,2-0.5h0.7v3.2h0
		c0.4-0.9,1-1.6,1.7-2.3c0.8-0.6,1.7-1,2.8-1c0.8,0,1.5,0.1,2.1,0.3c0.6,0.2,1.1,0.5,1.5,1c0.4,0.5,0.7,1.1,0.9,1.9
		c0.2,0.8,0.3,1.8,0.3,3v7.3c0.8,0.1,1.4,0.4,1.9,0.7V44.9z"/>
	<path d="M87.7,37.7c0-1.2,0.2-2.3,0.5-3.2c0.3-0.9,0.8-1.7,1.4-2.4c0.6-0.6,1.3-1.1,2.1-1.5c0.8-0.3,1.8-0.5,2.8-0.5
		c1.2,0,2.2,0.2,3.1,0.5c0.9,0.4,1.6,0.9,2.1,1.5c0.5,0.7,1,1.5,1.2,2.4c0.3,0.9,0.4,2,0.4,3.1c0,2.4-0.6,4.3-1.8,5.6
		c-1.2,1.3-2.9,2-5,2c-1.2,0-2.2-0.2-3-0.5c-0.8-0.4-1.5-0.9-2.1-1.5c-0.6-0.7-1-1.5-1.3-2.4C87.9,39.9,87.7,38.9,87.7,37.7z
		 M90.5,37.7c0,0.9,0.1,1.7,0.2,2.5c0.2,0.8,0.4,1.4,0.8,2c0.4,0.6,0.8,1,1.4,1.3c0.6,0.3,1.3,0.5,2.1,0.5c1,0,1.9-0.5,2.6-1.5
		c0.7-1,1-2.6,1-4.8c0-0.9-0.1-1.7-0.2-2.5c-0.2-0.8-0.4-1.4-0.8-2c-0.3-0.6-0.8-1-1.3-1.3c-0.5-0.3-1.2-0.5-1.9-0.5
		c-1.1,0-2,0.5-2.7,1.5C90.8,34,90.5,35.6,90.5,37.7z"/>
	<path d="M108.2,31.2c0.7-0.5,1.5-0.8,2.3-1v-2.5c0.2-0.2,0.5-0.4,0.9-0.6c0.3-0.2,0.7-0.3,1-0.5h0.7v3.8h4.3V32h-4.3v8.3
		c0,1.1,0.2,2,0.5,2.4c0.4,0.5,0.9,0.7,1.6,0.7c0.3,0,0.8,0,1.3-0.1c0.5,0,1-0.1,1.3-0.3l0.2,0.4c-0.2,0.2-0.4,0.4-0.6,0.5
		c-0.3,0.2-0.6,0.4-1,0.5c-0.4,0.2-0.7,0.3-1.2,0.4c-0.4,0.1-0.9,0.2-1.3,0.2c-1.2,0-2-0.3-2.6-1c-0.6-0.7-0.9-1.7-0.9-3.2V32h-2.3
		V31.2z"/>
	<path d="M135.6,41.2c0,0.4,0,0.8,0,1.1c0,0.3,0,0.6,0.1,1l2,0.3v0.6c-0.5,0.2-1,0.5-1.6,0.7c-0.6,0.2-1.1,0.3-1.7,0.4h-0.7
		c-0.2-0.4-0.3-0.9-0.3-1.5c0-0.5-0.1-1.1-0.1-1.7h-0.1c-0.1,0.4-0.2,0.8-0.4,1.2c-0.2,0.4-0.5,0.7-0.9,1.1
		c-0.4,0.3-0.8,0.6-1.3,0.7c-0.5,0.2-1,0.3-1.6,0.3c-1.2,0-2.1-0.4-2.9-1.1c-0.7-0.7-1.1-1.6-1.1-2.8c0-0.9,0.2-1.6,0.5-2.2
		c0.4-0.6,0.9-1,1.6-1.3c0.7-0.3,1.5-0.6,2.6-0.7c1-0.1,2.2-0.3,3.5-0.3c0.1-0.8,0.1-1.6,0.1-2.2c0-0.7-0.1-1.2-0.3-1.7
		c-0.2-0.5-0.5-0.8-0.8-1.1c-0.4-0.3-0.8-0.4-1.4-0.4c-0.3,0-0.6,0-0.9,0c-0.3,0-0.7,0.1-1,0.2l-1.4,3.5h-0.7
		c-0.2-0.6-0.4-1.2-0.5-1.8c-0.1-0.6-0.2-1.2-0.3-1.8c0.7-0.4,1.5-0.8,2.4-1c0.9-0.2,1.9-0.4,3-0.4c1,0,1.8,0.1,2.3,0.4
		c0.6,0.3,1,0.6,1.3,1.1c0.3,0.4,0.5,0.9,0.6,1.5c0.1,0.5,0.1,1.1,0.1,1.6c0,1.2,0,2.3-0.1,3.3C135.6,39.1,135.6,40.2,135.6,41.2z
		 M130,43.5c0.5,0,0.9-0.1,1.3-0.3c0.4-0.2,0.7-0.4,0.9-0.7c0.2-0.3,0.5-0.5,0.6-0.8c0.2-0.3,0.3-0.5,0.3-0.7v-3
		c-1.1,0-2,0.1-2.7,0.2c-0.7,0.1-1.3,0.3-1.7,0.5c-0.4,0.2-0.7,0.6-0.8,0.9c-0.2,0.4-0.2,0.8-0.2,1.3c0,0.8,0.2,1.5,0.6,1.9
		C128.7,43.3,129.3,43.5,130,43.5z"/>
	<path d="M144,31.2c0.7-0.5,1.5-0.8,2.3-1v-2.5c0.2-0.2,0.5-0.4,0.9-0.6c0.3-0.2,0.7-0.3,1-0.5h0.7v3.8h4.3V32h-4.3v8.3
		c0,1.1,0.2,2,0.5,2.4c0.4,0.5,0.9,0.7,1.6,0.7c0.3,0,0.8,0,1.3-0.1c0.5,0,1-0.1,1.3-0.3l0.2,0.4c-0.2,0.2-0.4,0.4-0.6,0.5
		c-0.3,0.2-0.6,0.4-1,0.5c-0.4,0.2-0.7,0.3-1.2,0.4c-0.4,0.1-0.9,0.2-1.3,0.2c-1.2,0-2-0.3-2.6-1c-0.6-0.7-0.9-1.7-0.9-3.2V32H144
		V31.2z"/>
	<path d="M167.1,44.9h-6.4v-0.7c0.3-0.2,0.6-0.3,0.9-0.4c0.3-0.1,0.6-0.2,1-0.3V32.2l-1.9-0.2v-0.7c0.6-0.2,1.2-0.4,1.8-0.6
		c0.7-0.2,1.3-0.3,2-0.4h0.7v13.4c0.4,0.1,0.7,0.2,1,0.3c0.3,0.1,0.6,0.2,0.9,0.4V44.9z M162.1,25.6c0-0.5,0.2-0.9,0.5-1.2
		c0.3-0.3,0.8-0.5,1.3-0.5c0.6,0,1,0.2,1.3,0.5c0.3,0.3,0.5,0.7,0.5,1.2c0,0.5-0.2,0.9-0.5,1.2c-0.3,0.3-0.8,0.4-1.3,0.4
		c-0.6,0-1-0.1-1.3-0.4C162.3,26.5,162.1,26.1,162.1,25.6z"/>
	<path d="M174.7,37.7c0-1.2,0.2-2.3,0.5-3.2c0.3-0.9,0.8-1.7,1.4-2.4c0.6-0.6,1.3-1.1,2.1-1.5c0.8-0.3,1.8-0.5,2.8-0.5
		c1.2,0,2.2,0.2,3.1,0.5c0.9,0.4,1.6,0.9,2.1,1.5c0.5,0.7,1,1.5,1.2,2.4c0.3,0.9,0.4,2,0.4,3.1c0,2.4-0.6,4.3-1.8,5.6
		c-1.2,1.3-2.9,2-5,2c-1.2,0-2.2-0.2-3-0.5c-0.8-0.4-1.5-0.9-2.1-1.5c-0.6-0.7-1-1.5-1.3-2.4C174.8,39.9,174.7,38.9,174.7,37.7z
		 M177.5,37.7c0,0.9,0.1,1.7,0.2,2.5c0.2,0.8,0.4,1.4,0.8,2c0.4,0.6,0.8,1,1.4,1.3c0.6,0.3,1.3,0.5,2.1,0.5c1,0,1.9-0.5,2.6-1.5
		c0.7-1,1-2.6,1-4.8c0-0.9-0.1-1.7-0.2-2.5c-0.2-0.8-0.4-1.4-0.8-2c-0.3-0.6-0.8-1-1.3-1.3c-0.5-0.3-1.2-0.5-1.9-0.5
		c-1.1,0-2,0.5-2.7,1.5C177.8,34,177.5,35.6,177.5,37.7z"/>
	<path d="M197,39.2c0-1.2,0-2.4,0.1-3.6c0.1-1.2,0.1-2.3,0.1-3.5l-1.9-0.2v-0.7c0.6-0.2,1.2-0.4,1.9-0.6c0.6-0.2,1.3-0.3,1.9-0.4
		h0.7c0,1.4,0,2.9-0.1,4.3c-0.1,1.4-0.1,2.8-0.1,4.2c0,0.7,0,1.4,0.1,2c0.1,0.6,0.2,1.1,0.5,1.5c0.2,0.4,0.5,0.7,0.9,0.9
		c0.4,0.2,0.9,0.3,1.5,0.3c0.9,0,1.6-0.3,2.2-0.9c0.6-0.6,1-1.4,1.4-2.4v-7.9l-1.9-0.2v-0.7c0.6-0.2,1.2-0.4,1.9-0.6
		c0.6-0.2,1.3-0.3,1.9-0.4h0.7v13.1l1.9,0.2v0.6c-0.6,0.2-1.1,0.5-1.7,0.7c-0.6,0.2-1.2,0.3-1.8,0.4h-0.7l-0.2-3.4h-0.1
		c-0.1,0.4-0.3,0.8-0.5,1.2c-0.2,0.4-0.6,0.8-0.9,1.1c-0.4,0.3-0.8,0.6-1.3,0.8c-0.5,0.2-1,0.3-1.6,0.3c-0.8,0-1.4-0.1-2-0.3
		c-0.6-0.2-1.1-0.5-1.5-1c-0.4-0.5-0.7-1.1-0.9-1.9C197.1,41.4,197,40.4,197,39.2z"/>
	<path d="M225.1,41.6c0-0.5-0.2-1-0.5-1.4c-0.3-0.4-0.8-0.7-1.3-1.1c-0.5-0.3-1.1-0.6-1.7-1c-0.6-0.3-1.1-0.7-1.7-1.1
		c-0.5-0.4-0.9-0.9-1.3-1.4c-0.3-0.5-0.5-1.2-0.5-2c0-0.5,0.1-1,0.4-1.4c0.2-0.4,0.6-0.8,1-1.1c0.4-0.3,0.9-0.6,1.4-0.7
		c0.5-0.2,1.1-0.3,1.7-0.3c1,0,1.9,0.1,2.6,0.2c0.7,0.1,1.3,0.3,1.9,0.5c-0.1,0.6-0.2,1.2-0.3,1.9c-0.1,0.6-0.3,1.3-0.4,1.9h-0.7
		l-1.1-2.9c-0.2-0.1-0.5-0.2-0.8-0.2c-0.3,0-0.6,0-0.9,0c-0.3,0-0.6,0.1-0.9,0.2c-0.3,0.1-0.5,0.3-0.7,0.5s-0.3,0.4-0.4,0.7
		c-0.1,0.2-0.1,0.5-0.1,0.7c0,0.5,0.2,1,0.5,1.3c0.3,0.4,0.8,0.7,1.3,1c0.5,0.3,1.1,0.6,1.7,0.9c0.6,0.3,1.1,0.7,1.7,1
		c0.5,0.4,0.9,0.8,1.3,1.3c0.3,0.5,0.5,1.1,0.5,1.8c0,0.7-0.1,1.2-0.4,1.8c-0.3,0.5-0.7,1-1.2,1.3c-0.5,0.4-1.1,0.6-1.7,0.9
		c-0.6,0.2-1.3,0.3-2.1,0.3c-0.8,0-1.6-0.1-2.3-0.2c-0.7-0.1-1.4-0.4-2.2-0.6c0-0.7,0.1-1.4,0.3-2c0.1-0.6,0.3-1.3,0.5-1.9h0.7
		l1.3,3.1c0.2,0.2,0.5,0.2,0.8,0.3c0.3,0,0.6,0,0.8,0c0.8,0,1.5-0.2,2-0.7C224.8,42.9,225.1,42.3,225.1,41.6z"/>
</g>
<path d="M239,60H11.7V11.8H239V60z M15,56.7h220.6V15.1H15V56.7z"/>
<path d="M21.2,21.6l0.1-9.7c0-0.4,0-0.9,0-1.3C21.3,4.8,16.5,0,10.6,0S0,4.8,0,10.6c0,5.8,4.7,10.9,10.6,11"/>
</svg>
